<svg width="436" height="436" viewBox="0 0 436 436" fill="none" xmlns="http://www.w3.org/2000/svg">
<rect width="436" height="436" fill="url(#paint0_linear_2637_1548)"/>
<path d="M313.375 286.125H122.625V299.75H313.375V286.125Z" fill="#63A0F9"/>
<path d="M313.375 299.75H122.625V313.375H313.375V299.75Z" fill="#63A0F9"/>
<path d="M313.375 313.375H122.625V327H313.375V313.375Z" fill="#63A0F9"/>
<path d="M313.375 327H122.625V340.625H313.375V327Z" fill="#63A0F9"/>
<path d="M149.875 340.625H122.625V354.25H149.875V340.625Z" fill="#63A0F9"/>
<path d="M313.375 340.625H163.5V354.25H313.375V340.625Z" fill="#63A0F9"/>
<path d="M149.875 354.25H122.625V367.875H149.875V354.25Z" fill="#63A0F9"/>
<path d="M313.375 354.25H163.5V367.875H313.375V354.25Z" fill="#63A0F9"/>
<path d="M149.875 367.875H122.625V381.5H149.875V367.875Z" fill="#63A0F9"/>
<path d="M313.375 367.875H163.5V381.5H313.375V367.875Z" fill="#63A0F9"/>
<path d="M149.875 381.5H122.625V395.125H149.875V381.5Z" fill="#63A0F9"/>
<path d="M313.375 381.5H163.5V395.125H313.375V381.5Z" fill="#63A0F9"/>
<path d="M149.875 395.125H122.625V408.75H149.875V395.125Z" fill="#63A0F9"/>
<path d="M313.375 395.125H163.5V408.75H313.375V395.125Z" fill="#63A0F9"/>
<path d="M149.875 408.75H122.625V422.375H149.875V408.75Z" fill="#63A0F9"/>
<path d="M313.375 408.75H163.5V422.375H313.375V408.75Z" fill="#63A0F9"/>
<path d="M149.875 422.375H122.625V436H149.875V422.375Z" fill="#63A0F9"/>
<path d="M313.375 422.375H163.5V436H313.375V422.375Z" fill="#63A0F9"/>
<path d="M313.375 286.125H122.625V299.75H313.375V286.125Z" fill="#A3EFD0"/>
<path d="M313.375 299.75H122.625V313.375H313.375V299.75Z" fill="#A3EFD0"/>
<path d="M313.375 313.375H122.625V327H313.375V313.375Z" fill="#87E4D9"/>
<path d="M313.375 327H122.625V340.625H313.375V327Z" fill="#87E4D9"/>
<path d="M149.875 340.625H122.625V354.25H149.875V340.625Z" fill="#87E4D9"/>
<path d="M313.375 340.625H163.5V354.25H313.375V340.625Z" fill="#87E4D9"/>
<path d="M149.875 354.25H122.625V367.875H149.875V354.25Z" fill="#87E4D9"/>
<path d="M313.375 354.25H163.5V367.875H313.375V354.25Z" fill="#87E4D9"/>
<path d="M149.875 367.875H122.625V381.5H149.875V367.875Z" fill="#7CC4F2"/>
<path d="M313.375 367.875H163.5V381.5H313.375V367.875Z" fill="#7CC4F2"/>
<path d="M149.875 381.5H122.625V395.125H149.875V381.5Z" fill="#7CC4F2"/>
<path d="M313.375 381.5H163.5V395.125H313.375V381.5Z" fill="#7CC4F2"/>
<path d="M149.875 395.125H122.625V408.75H149.875V395.125Z" fill="#7CC4F2"/>
<path d="M313.375 395.125H163.5V408.75H313.375V395.125Z" fill="#7CC4F2"/>
<path d="M149.875 408.75H122.625V422.375H149.875V408.75Z" fill="#7CC4F2"/>
<path d="M313.375 408.75H163.5V422.375H313.375V408.75Z" fill="#7CC4F2"/>
<path d="M149.875 422.375H122.625V436H149.875V422.375Z" fill="#71BDE4"/>
<path d="M313.375 422.375H163.5V436H313.375V422.375Z" fill="#71BDE4"/>
<path d="M122.625 40.875H95.375V54.5H122.625V40.875Z" fill="#1F1D29"/>
<path d="M327 40.875H299.75V54.5H327V40.875Z" fill="#1F1D29"/>
<path d="M149.875 54.5H95.375V68.125H149.875V54.5Z" fill="#1F1D29"/>
<path d="M327 54.5H272.5V68.125H327V54.5Z" fill="#1F1D29"/>
<path d="M109 68.125H95.375V81.75H109V68.125Z" fill="#1F1D29"/>
<path d="M122.625 68.125H109V81.75H122.625V68.125Z" fill="#CAEFF9"/>
<path d="M177.125 68.125H122.625V81.75H177.125V68.125Z" fill="#1F1D29"/>
<path d="M299.75 68.125H245.25V81.75H299.75V68.125Z" fill="#1F1D29"/>
<path d="M313.375 68.125H299.75V81.75H313.375V68.125Z" fill="#CAEFF9"/>
<path d="M327 68.125H313.375V81.75H327V68.125Z" fill="#1F1D29"/>
<path d="M109 81.75H95.375V95.375H109V81.75Z" fill="#1F1D29"/>
<path d="M149.875 81.75H109V95.375H149.875V81.75Z" fill="#CAEFF9"/>
<path d="M177.125 81.75H149.875V95.375H177.125V81.75Z" fill="#1F1D29"/>
<path d="M272.5 81.75H245.25V95.375H272.5V81.75Z" fill="#1F1D29"/>
<path d="M313.375 81.75H272.5V95.375H313.375V81.75Z" fill="#CAEFF9"/>
<path d="M327 81.75H313.375V95.375H327V81.75Z" fill="#1F1D29"/>
<path d="M109 95.375H95.375V109H109V95.375Z" fill="#1F1D29"/>
<path d="M163.5 95.375H109V109H163.5V95.375Z" fill="#CAEFF9"/>
<path d="M258.875 95.375H163.5V109H258.875V95.375Z" fill="#1F1D29"/>
<path d="M313.375 95.375H258.875V109H313.375V95.375Z" fill="#CAEFF9"/>
<path d="M327 95.375H313.375V109H327V95.375Z" fill="#1F1D29"/>
<path d="M109 109H95.375V122.625H109V109Z" fill="#1F1D29"/>
<path d="M149.875 109H109V122.625H149.875V109Z" fill="#CAEFF9"/>
<path d="M272.5 109H149.875V122.625H272.5V109Z" fill="#1F1D29"/>
<path d="M313.375 109H272.5V122.625H313.375V109Z" fill="#CAEFF9"/>
<path d="M327 109H313.375V122.625H327V109Z" fill="#1F1D29"/>
<path d="M109 122.625H95.375V136.25H109V122.625Z" fill="#1F1D29"/>
<path d="M122.625 122.625H109V136.25H122.625V122.625Z" fill="#CAEFF9"/>
<path d="M299.75 122.625H122.625V136.25H299.75V122.625Z" fill="#1F1D29"/>
<path d="M313.375 122.625H299.75V136.25H313.375V122.625Z" fill="#CAEFF9"/>
<path d="M327 122.625H313.375V136.25H327V122.625Z" fill="#1F1D29"/>
<path d="M327 136.25H95.375V149.875H327V136.25Z" fill="#1F1D29"/>
<path d="M327 149.875H109V163.5H327V149.875Z" fill="#1F1D29"/>
<path d="M327 163.5H109V177.125H327V163.5Z" fill="#1F1D29"/>
<path d="M327 177.125H109V190.75H327V177.125Z" fill="#1F1D29"/>
<path d="M327 190.75H109V204.375H327V190.75Z" fill="#1F1D29"/>
<path d="M327 204.375H109V218H327V204.375Z" fill="#1F1D29"/>
<path d="M327 218H109V231.625H327V218Z" fill="#1F1D29"/>
<path d="M149.875 231.625H81.75V245.25H149.875V231.625Z" fill="#7CC4F2"/>
<path d="M218 231.625H149.875V245.25H218V231.625Z" fill="#CAEFF9"/>
<path d="M245.25 231.625H218V245.25H245.25V231.625Z" fill="#FA6FE2"/>
<path d="M299.75 231.625H245.25V245.25H299.75V231.625Z" fill="#CAEFF9"/>
<path d="M354.25 231.625H299.75V245.25H354.25V231.625Z" fill="#7CC4F2"/>
<path d="M218 245.25H109V258.875H218V245.25Z" fill="#CAEFF9"/>
<path d="M231.625 245.25H218V258.875H231.625V245.25Z" fill="#5A6B7B"/>
<path d="M327 245.25H231.625V258.875H327V245.25Z" fill="#CAEFF9"/>
<path d="M149.875 258.875H81.75V272.5H149.875V258.875Z" fill="#7CC4F2"/>
<path d="M190.75 258.875H149.875V272.5H190.75V258.875Z" fill="#CAEFF9"/>
<path d="M245.25 258.875H190.75V272.5H245.25V258.875Z" fill="#5A6B7B"/>
<path d="M299.75 258.875H245.25V272.5H299.75V258.875Z" fill="#CAEFF9"/>
<path d="M354.25 258.875H299.75V272.5H354.25V258.875Z" fill="#7CC4F2"/>
<path d="M327 272.5H109V286.125H327V272.5Z" fill="#CAEFF9"/>
<path d="M218 149.875H136.25V163.5H218V149.875Z" fill="#9CB4B8"/>
<path d="M313.375 149.875H231.625V163.5H313.375V149.875Z" fill="#9CB4B8"/>
<path d="M149.875 163.5H136.25V177.125H149.875V163.5Z" fill="#9CB4B8"/>
<path d="M177.125 163.5H149.875V177.125H177.125V163.5Z" fill="white"/>
<path d="M204.375 163.5H177.125V177.125H204.375V163.5Z" fill="black"/>
<path d="M218 163.5H204.375V177.125H218V163.5Z" fill="#9CB4B8"/>
<path d="M245.25 163.5H231.625V177.125H245.25V163.5Z" fill="#9CB4B8"/>
<path d="M272.5 163.5H245.25V177.125H272.5V163.5Z" fill="white"/>
<path d="M299.75 163.5H272.5V177.125H299.75V163.5Z" fill="black"/>
<path d="M313.375 163.5H299.75V177.125H313.375V163.5Z" fill="#9CB4B8"/>
<path d="M149.875 177.125H95.375V190.75H149.875V177.125Z" fill="#9CB4B8"/>
<path d="M177.125 177.125H149.875V190.75H177.125V177.125Z" fill="white"/>
<path d="M204.375 177.125H177.125V190.75H204.375V177.125Z" fill="black"/>
<path d="M245.25 177.125H204.375V190.75H245.25V177.125Z" fill="#9CB4B8"/>
<path d="M272.5 177.125H245.25V190.75H272.5V177.125Z" fill="white"/>
<path d="M299.75 177.125H272.5V190.75H299.75V177.125Z" fill="black"/>
<path d="M313.375 177.125H299.75V190.75H313.375V177.125Z" fill="#9CB4B8"/>
<path d="M109 190.75H95.375V204.375H109V190.75Z" fill="#9CB4B8"/>
<path d="M149.875 190.75H136.25V204.375H149.875V190.75Z" fill="#9CB4B8"/>
<path d="M177.125 190.75H149.875V204.375H177.125V190.75Z" fill="white"/>
<path d="M204.375 190.75H177.125V204.375H204.375V190.75Z" fill="black"/>
<path d="M218 190.75H204.375V204.375H218V190.75Z" fill="#9CB4B8"/>
<path d="M245.25 190.75H231.625V204.375H245.25V190.75Z" fill="#9CB4B8"/>
<path d="M272.5 190.75H245.25V204.375H272.5V190.75Z" fill="white"/>
<path d="M299.75 190.75H272.5V204.375H299.75V190.75Z" fill="black"/>
<path d="M313.375 190.75H299.75V204.375H313.375V190.75Z" fill="#9CB4B8"/>
<path d="M109 204.375H95.375V218H109V204.375Z" fill="#9CB4B8"/>
<path d="M149.875 204.375H136.25V218H149.875V204.375Z" fill="#9CB4B8"/>
<path d="M177.125 204.375H149.875V218H177.125V204.375Z" fill="white"/>
<path d="M204.375 204.375H177.125V218H204.375V204.375Z" fill="black"/>
<path d="M218 204.375H204.375V218H218V204.375Z" fill="#9CB4B8"/>
<path d="M245.25 204.375H231.625V218H245.25V204.375Z" fill="#9CB4B8"/>
<path d="M272.5 204.375H245.25V218H272.5V204.375Z" fill="white"/>
<path d="M299.75 204.375H272.5V218H299.75V204.375Z" fill="black"/>
<path d="M313.375 204.375H299.75V218H313.375V204.375Z" fill="#9CB4B8"/>
<path d="M218 218H136.25V231.625H218V218Z" fill="#9CB4B8"/>
<path d="M313.375 218H231.625V231.625H313.375V218Z" fill="#9CB4B8"/>
<defs>
<linearGradient id="paint0_linear_2637_1548" x1="3.04542e-07" y1="435.5" x2="436" y2="-0.500002" gradientUnits="userSpaceOnUse">
<stop stop-color="#53185E"/>
<stop offset="1" stop-color="#C14F73"/>
</linearGradient>
</defs>
</svg>
