<svg width="436" height="436" viewBox="0 0 436 436" fill="none" xmlns="http://www.w3.org/2000/svg">
<rect width="436" height="436" fill="url(#paint0_linear_2637_981)"/>
<path d="M313.375 286.125H122.625V299.75H313.375V286.125Z" fill="#343235"/>
<path d="M313.375 299.75H122.625V313.375H313.375V299.75Z" fill="#343235"/>
<path d="M313.375 313.375H122.625V327H313.375V313.375Z" fill="#343235"/>
<path d="M313.375 327H122.625V340.625H313.375V327Z" fill="#343235"/>
<path d="M149.875 340.625H122.625V354.25H149.875V340.625Z" fill="#343235"/>
<path d="M313.375 340.625H163.5V354.25H313.375V340.625Z" fill="#343235"/>
<path d="M149.875 354.25H122.625V367.875H149.875V354.25Z" fill="#343235"/>
<path d="M313.375 354.25H163.5V367.875H313.375V354.25Z" fill="#343235"/>
<path d="M149.875 367.875H122.625V381.5H149.875V367.875Z" fill="#343235"/>
<path d="M313.375 367.875H163.5V381.5H313.375V367.875Z" fill="#343235"/>
<path d="M149.875 381.5H122.625V395.125H149.875V381.5Z" fill="#343235"/>
<path d="M313.375 381.5H163.5V395.125H313.375V381.5Z" fill="#343235"/>
<path d="M149.875 395.125H122.625V408.75H149.875V395.125Z" fill="#343235"/>
<path d="M313.375 395.125H163.5V408.75H313.375V395.125Z" fill="#343235"/>
<path d="M149.875 408.75H122.625V422.375H149.875V408.75Z" fill="#343235"/>
<path d="M313.375 408.75H163.5V422.375H313.375V408.75Z" fill="#343235"/>
<path d="M149.875 422.375H122.625V436H149.875V422.375Z" fill="#343235"/>
<path d="M313.375 422.375H163.5V436H313.375V422.375Z" fill="#343235"/>
<path d="M313.375 286.125H122.625V299.75H313.375V286.125Z" fill="#FF3A0E"/>
<path d="M313.375 299.75H122.625V313.375H313.375V299.75Z" fill="#FF3A0E"/>
<path d="M313.375 313.375H122.625V327H313.375V313.375Z" fill="#D32A09"/>
<path d="M313.375 327H122.625V340.625H313.375V327Z" fill="#D32A09"/>
<path d="M149.875 340.625H122.625V354.25H149.875V340.625Z" fill="#AE3208"/>
<path d="M313.375 340.625H163.5V354.25H313.375V340.625Z" fill="#AE3208"/>
<path d="M149.875 354.25H122.625V367.875H149.875V354.25Z" fill="#AE3208"/>
<path d="M313.375 354.25H163.5V367.875H313.375V354.25Z" fill="#AE3208"/>
<path d="M149.875 367.875H122.625V381.5H149.875V367.875Z" fill="#903707"/>
<path d="M313.375 367.875H163.5V381.5H313.375V367.875Z" fill="#903707"/>
<path d="M149.875 381.5H122.625V395.125H149.875V381.5Z" fill="#903707"/>
<path d="M313.375 381.5H163.5V395.125H313.375V381.5Z" fill="#903707"/>
<path d="M149.875 395.125H122.625V408.75H149.875V395.125Z" fill="#6E3206"/>
<path d="M313.375 395.125H163.5V408.75H313.375V395.125Z" fill="#6E3206"/>
<path d="M149.875 408.75H122.625V422.375H149.875V408.75Z" fill="#6E3206"/>
<path d="M313.375 408.75H163.5V422.375H313.375V408.75Z" fill="#6E3206"/>
<path d="M149.875 422.375H122.625V436H149.875V422.375Z" fill="#552E05"/>
<path d="M313.375 422.375H163.5V436H313.375V422.375Z" fill="#552E05"/>
<path d="M258.875 40.875H177.125V54.5H258.875V40.875Z" fill="#F9F4E6"/>
<path d="M190.75 54.5H149.875V68.125H190.75V54.5Z" fill="#F9F4E6"/>
<path d="M231.625 54.5H190.75V68.125H231.625V54.5Z" fill="#CFC9B8"/>
<path d="M286.125 54.5H231.625V68.125H286.125V54.5Z" fill="#F9F4E6"/>
<path d="M177.125 68.125H122.625V81.75H177.125V68.125Z" fill="#F9F4E6"/>
<path d="M218 68.125H177.125V81.75H218V68.125Z" fill="#CFC9B8"/>
<path d="M313.375 68.125H218V81.75H313.375V68.125Z" fill="#F9F4E6"/>
<path d="M163.5 81.75H109V95.375H163.5V81.75Z" fill="#F9F4E6"/>
<path d="M190.75 81.75H163.5V95.375H190.75V81.75Z" fill="#CFC9B8"/>
<path d="M272.5 81.75H190.75V95.375H272.5V81.75Z" fill="#F9F4E6"/>
<path d="M286.125 81.75H272.5V95.375H286.125V81.75Z" fill="#CFC9B8"/>
<path d="M327 81.75H286.125V95.375H327V81.75Z" fill="#F9F4E6"/>
<path d="M299.75 95.375H109V109H299.75V95.375Z" fill="#F9F4E6"/>
<path d="M313.375 95.375H299.75V109H313.375V95.375Z" fill="#CFC9B8"/>
<path d="M327 95.375H313.375V109H327V95.375Z" fill="#F9F4E6"/>
<path d="M340.625 109H95.375V122.625H340.625V109Z" fill="#F9F4E6"/>
<path d="M163.5 122.625H95.375V136.25H163.5V122.625Z" fill="#F9F4E6"/>
<path d="M177.125 122.625H163.5V136.25H177.125V122.625Z" fill="#CFC9B8"/>
<path d="M286.125 122.625H177.125V136.25H286.125V122.625Z" fill="#F9F4E6"/>
<path d="M299.75 122.625H286.125V136.25H299.75V122.625Z" fill="#CFC9B8"/>
<path d="M340.625 122.625H299.75V136.25H340.625V122.625Z" fill="#F9F4E6"/>
<path d="M109 136.25H81.75V149.875H109V136.25Z" fill="#F9F4E6"/>
<path d="M122.625 136.25H109V149.875H122.625V136.25Z" fill="#CFC9B8"/>
<path d="M354.25 136.25H122.625V149.875H354.25V136.25Z" fill="#F9F4E6"/>
<path d="M95.375 149.875H81.75V163.5H95.375V149.875Z" fill="#F9F4E6"/>
<path d="M122.625 149.875H95.375V163.5H122.625V149.875Z" fill="#CFC9B8"/>
<path d="M354.25 149.875H122.625V163.5H354.25V149.875Z" fill="#F9F4E6"/>
<path d="M95.375 163.5H81.75V177.125H95.375V163.5Z" fill="#F9F4E6"/>
<path d="M109 163.5H95.375V177.125H109V163.5Z" fill="#CFC9B8"/>
<path d="M354.25 163.5H109V177.125H354.25V163.5Z" fill="#F9F4E6"/>
<path d="M354.25 177.125H81.75V190.75H354.25V177.125Z" fill="#F9F4E6"/>
<path d="M354.25 190.75H81.75V204.375H354.25V190.75Z" fill="#F9F4E6"/>
<path d="M354.25 204.375H81.75V218H354.25V204.375Z" fill="#F9F4E6"/>
<path d="M340.625 218H95.375V231.625H340.625V218Z" fill="#F9F4E6"/>
<path d="M299.75 231.625H95.375V245.25H299.75V231.625Z" fill="#F9F4E6"/>
<path d="M313.375 231.625H299.75V245.25H313.375V231.625Z" fill="#CFC9B8"/>
<path d="M340.625 231.625H313.375V245.25H340.625V231.625Z" fill="#F9F4E6"/>
<path d="M177.125 245.25H109V258.875H177.125V245.25Z" fill="#F9F4E6"/>
<path d="M204.375 245.25H177.125V258.875H204.375V245.25Z" fill="black"/>
<path d="M286.125 245.25H204.375V258.875H286.125V245.25Z" fill="#F9F4E6"/>
<path d="M313.375 245.25H286.125V258.875H313.375V245.25Z" fill="#CFC9B8"/>
<path d="M327 245.25H313.375V258.875H327V245.25Z" fill="#F9F4E6"/>
<path d="M258.875 258.875H109V272.5H258.875V258.875Z" fill="#F9F4E6"/>
<path d="M299.75 258.875H258.875V272.5H299.75V258.875Z" fill="#CFC9B8"/>
<path d="M327 258.875H299.75V272.5H327V258.875Z" fill="#F9F4E6"/>
<path d="M204.375 272.5H122.625V286.125H204.375V272.5Z" fill="#F9F4E6"/>
<path d="M218 272.5H204.375V286.125H218V272.5Z" fill="#CFC9B8"/>
<path d="M258.875 272.5H218V286.125H258.875V272.5Z" fill="#F9F4E6"/>
<path d="M272.5 272.5H258.875V286.125H272.5V272.5Z" fill="#CFC9B8"/>
<path d="M313.375 272.5H272.5V286.125H313.375V272.5Z" fill="#F9F4E6"/>
<path d="M286.125 286.125H149.875V299.75H286.125V286.125Z" fill="#F9F4E6"/>
<path d="M258.875 299.75H177.125V313.375H258.875V299.75Z" fill="#F9F4E6"/>
<path d="M218 149.875H136.25V163.5H218V149.875Z" fill="black"/>
<path d="M313.375 149.875H231.625V163.5H313.375V149.875Z" fill="black"/>
<path d="M149.875 163.5H136.25V177.125H149.875V163.5Z" fill="black"/>
<path d="M177.125 163.5H149.875V177.125H177.125V163.5Z" fill="white"/>
<path d="M204.375 163.5H177.125V177.125H204.375V163.5Z" fill="#FF0E0E"/>
<path d="M218 163.5H204.375V177.125H218V163.5Z" fill="black"/>
<path d="M245.25 163.5H231.625V177.125H245.25V163.5Z" fill="black"/>
<path d="M272.5 163.5H245.25V177.125H272.5V163.5Z" fill="white"/>
<path d="M299.75 163.5H272.5V177.125H299.75V163.5Z" fill="#FF0E0E"/>
<path d="M313.375 163.5H299.75V177.125H313.375V163.5Z" fill="black"/>
<path d="M149.875 177.125H95.375V190.75H149.875V177.125Z" fill="black"/>
<path d="M177.125 177.125H149.875V190.75H177.125V177.125Z" fill="white"/>
<path d="M204.375 177.125H177.125V190.75H204.375V177.125Z" fill="#FF0E0E"/>
<path d="M245.25 177.125H204.375V190.75H245.25V177.125Z" fill="black"/>
<path d="M272.5 177.125H245.25V190.75H272.5V177.125Z" fill="white"/>
<path d="M299.75 177.125H272.5V190.75H299.75V177.125Z" fill="#FF0E0E"/>
<path d="M313.375 177.125H299.75V190.75H313.375V177.125Z" fill="black"/>
<path d="M109 190.75H95.375V204.375H109V190.75Z" fill="black"/>
<path d="M149.875 190.75H136.25V204.375H149.875V190.75Z" fill="black"/>
<path d="M177.125 190.75H149.875V204.375H177.125V190.75Z" fill="white"/>
<path d="M204.375 190.75H177.125V204.375H204.375V190.75Z" fill="#FF0E0E"/>
<path d="M218 190.75H204.375V204.375H218V190.75Z" fill="black"/>
<path d="M245.25 190.75H231.625V204.375H245.25V190.75Z" fill="black"/>
<path d="M272.5 190.75H245.25V204.375H272.5V190.75Z" fill="white"/>
<path d="M299.75 190.75H272.5V204.375H299.75V190.75Z" fill="#FF0E0E"/>
<path d="M313.375 190.75H299.75V204.375H313.375V190.75Z" fill="black"/>
<path d="M109 204.375H95.375V218H109V204.375Z" fill="black"/>
<path d="M149.875 204.375H136.25V218H149.875V204.375Z" fill="black"/>
<path d="M177.125 204.375H149.875V218H177.125V204.375Z" fill="white"/>
<path d="M204.375 204.375H177.125V218H204.375V204.375Z" fill="#FF0E0E"/>
<path d="M218 204.375H204.375V218H218V204.375Z" fill="black"/>
<path d="M245.25 204.375H231.625V218H245.25V204.375Z" fill="black"/>
<path d="M272.5 204.375H245.25V218H272.5V204.375Z" fill="white"/>
<path d="M299.75 204.375H272.5V218H299.75V204.375Z" fill="#FF0E0E"/>
<path d="M313.375 204.375H299.75V218H313.375V204.375Z" fill="black"/>
<path d="M218 218H136.25V231.625H218V218Z" fill="black"/>
<path d="M313.375 218H231.625V231.625H313.375V218Z" fill="black"/>
<defs>
<linearGradient id="paint0_linear_2637_981" x1="3.04542e-07" y1="435.5" x2="436" y2="-0.500002" gradientUnits="userSpaceOnUse">
<stop stop-color="#53185E"/>
<stop offset="1" stop-color="#C14F73"/>
</linearGradient>
</defs>
</svg>
