<svg width="436" height="436" viewBox="0 0 436 436" fill="none" xmlns="http://www.w3.org/2000/svg">
<rect width="436" height="436" fill="url(#paint0_linear_2637_1670)"/>
<path d="M313.375 286.125H122.625V299.75H313.375V286.125Z" fill="#34AC80"/>
<path d="M313.375 299.75H122.625V313.375H313.375V299.75Z" fill="#34AC80"/>
<path d="M313.375 313.375H122.625V327H313.375V313.375Z" fill="#34AC80"/>
<path d="M313.375 327H122.625V340.625H313.375V327Z" fill="#34AC80"/>
<path d="M149.875 340.625H122.625V354.25H149.875V340.625Z" fill="#34AC80"/>
<path d="M313.375 340.625H163.5V354.25H313.375V340.625Z" fill="#34AC80"/>
<path d="M149.875 354.25H122.625V367.875H149.875V354.25Z" fill="#34AC80"/>
<path d="M313.375 354.25H163.5V367.875H313.375V354.25Z" fill="#34AC80"/>
<path d="M149.875 367.875H122.625V381.5H149.875V367.875Z" fill="#34AC80"/>
<path d="M313.375 367.875H163.5V381.5H313.375V367.875Z" fill="#34AC80"/>
<path d="M149.875 381.5H122.625V395.125H149.875V381.5Z" fill="#34AC80"/>
<path d="M313.375 381.5H163.5V395.125H313.375V381.5Z" fill="#34AC80"/>
<path d="M149.875 395.125H122.625V408.75H149.875V395.125Z" fill="#34AC80"/>
<path d="M313.375 395.125H163.5V408.75H313.375V395.125Z" fill="#34AC80"/>
<path d="M149.875 408.75H122.625V422.375H149.875V408.75Z" fill="#34AC80"/>
<path d="M313.375 408.75H163.5V422.375H313.375V408.75Z" fill="#34AC80"/>
<path d="M149.875 422.375H122.625V436H149.875V422.375Z" fill="#34AC80"/>
<path d="M313.375 422.375H163.5V436H313.375V422.375Z" fill="#34AC80"/>
<path d="M163.5 286.125H149.875V299.75H163.5V286.125Z" fill="#068940"/>
<path d="M204.375 286.125H190.75V299.75H204.375V286.125Z" fill="#068940"/>
<path d="M245.25 286.125H231.625V299.75H245.25V286.125Z" fill="#068940"/>
<path d="M286.125 286.125H272.5V299.75H286.125V286.125Z" fill="#068940"/>
<path d="M136.25 299.75H122.625V313.375H136.25V299.75Z" fill="#0B5027"/>
<path d="M177.125 299.75H163.5V313.375H177.125V299.75Z" fill="#0B5027"/>
<path d="M218 299.75H204.375V313.375H218V299.75Z" fill="#0B5027"/>
<path d="M258.875 299.75H245.25V313.375H258.875V299.75Z" fill="#0B5027"/>
<path d="M299.75 299.75H286.125V313.375H299.75V299.75Z" fill="#0B5027"/>
<path d="M149.875 313.375H136.25V327H149.875V313.375Z" fill="#068940"/>
<path d="M190.75 313.375H177.125V327H190.75V313.375Z" fill="#068940"/>
<path d="M231.625 313.375H218V327H231.625V313.375Z" fill="#068940"/>
<path d="M272.5 313.375H258.875V327H272.5V313.375Z" fill="#068940"/>
<path d="M313.375 313.375H299.75V327H313.375V313.375Z" fill="#068940"/>
<path d="M163.5 327H149.875V340.625H163.5V327Z" fill="#0B5027"/>
<path d="M204.375 327H190.75V340.625H204.375V327Z" fill="#0B5027"/>
<path d="M245.25 327H231.625V340.625H245.25V327Z" fill="#0B5027"/>
<path d="M286.125 327H272.5V340.625H286.125V327Z" fill="#0B5027"/>
<path d="M136.25 340.625H122.625V354.25H136.25V340.625Z" fill="#068940"/>
<path d="M177.125 340.625H163.5V354.25H177.125V340.625Z" fill="#068940"/>
<path d="M218 340.625H204.375V354.25H218V340.625Z" fill="#068940"/>
<path d="M258.875 340.625H245.25V354.25H258.875V340.625Z" fill="#068940"/>
<path d="M299.75 340.625H286.125V354.25H299.75V340.625Z" fill="#068940"/>
<path d="M149.875 354.25H136.25V367.875H149.875V354.25Z" fill="#0B5027"/>
<path d="M190.75 354.25H177.125V367.875H190.75V354.25Z" fill="#0B5027"/>
<path d="M231.625 354.25H218V367.875H231.625V354.25Z" fill="#0B5027"/>
<path d="M272.5 354.25H258.875V367.875H272.5V354.25Z" fill="#0B5027"/>
<path d="M313.375 354.25H299.75V367.875H313.375V354.25Z" fill="#0B5027"/>
<path d="M204.375 367.875H190.75V381.5H204.375V367.875Z" fill="#068940"/>
<path d="M245.25 367.875H231.625V381.5H245.25V367.875Z" fill="#068940"/>
<path d="M286.125 367.875H272.5V381.5H286.125V367.875Z" fill="#068940"/>
<path d="M136.25 381.5H122.625V395.125H136.25V381.5Z" fill="#0B5027"/>
<path d="M177.125 381.5H163.5V395.125H177.125V381.5Z" fill="#0B5027"/>
<path d="M218 381.5H204.375V395.125H218V381.5Z" fill="#0B5027"/>
<path d="M258.875 381.5H245.25V395.125H258.875V381.5Z" fill="#0B5027"/>
<path d="M299.75 381.5H286.125V395.125H299.75V381.5Z" fill="#0B5027"/>
<path d="M149.875 395.125H136.25V408.75H149.875V395.125Z" fill="#068940"/>
<path d="M190.75 395.125H177.125V408.75H190.75V395.125Z" fill="#068940"/>
<path d="M231.625 395.125H218V408.75H231.625V395.125Z" fill="#068940"/>
<path d="M272.5 395.125H258.875V408.75H272.5V395.125Z" fill="#068940"/>
<path d="M313.375 395.125H299.75V408.75H313.375V395.125Z" fill="#068940"/>
<path d="M204.375 408.75H190.75V422.375H204.375V408.75Z" fill="#0B5027"/>
<path d="M245.25 408.75H231.625V422.375H245.25V408.75Z" fill="#0B5027"/>
<path d="M286.125 408.75H272.5V422.375H286.125V408.75Z" fill="#0B5027"/>
<path d="M136.25 422.375H122.625V436H136.25V422.375Z" fill="#068940"/>
<path d="M177.125 422.375H163.5V436H177.125V422.375Z" fill="#068940"/>
<path d="M218 422.375H204.375V436H218V422.375Z" fill="#068940"/>
<path d="M258.875 422.375H245.25V436H258.875V422.375Z" fill="#068940"/>
<path d="M299.75 422.375H286.125V436H299.75V422.375Z" fill="#068940"/>
<path d="M177.125 40.875H149.875V54.5H177.125V40.875Z" fill="#FFC110"/>
<path d="M190.75 40.875H177.125V54.5H190.75V40.875Z" fill="#DB8323"/>
<path d="M218 40.875H190.75V54.5H218V40.875Z" fill="#FFC110"/>
<path d="M245.25 40.875H218V54.5H245.25V40.875Z" fill="#FFF671"/>
<path d="M218 54.5H149.875V68.125H218V54.5Z" fill="#FFC110"/>
<path d="M245.25 54.5H218V68.125H245.25V54.5Z" fill="#FFF671"/>
<path d="M218 68.125H149.875V81.75H218V68.125Z" fill="#FFC110"/>
<path d="M258.875 68.125H218V81.75H258.875V68.125Z" fill="#FFF671"/>
<path d="M163.5 81.75H136.25V95.375H163.5V81.75Z" fill="#FFC110"/>
<path d="M177.125 81.75H163.5V95.375H177.125V81.75Z" fill="#FFF671"/>
<path d="M204.375 81.75H177.125V95.375H204.375V81.75Z" fill="#FFC110"/>
<path d="M231.625 81.75H204.375V95.375H231.625V81.75Z" fill="#FFF671"/>
<path d="M245.25 81.75H231.625V95.375H245.25V81.75Z" fill="#DB8323"/>
<path d="M258.875 81.75H245.25V95.375H258.875V81.75Z" fill="#FFF671"/>
<path d="M149.875 95.375H136.25V109H149.875V95.375Z" fill="#FFC110"/>
<path d="M163.5 95.375H149.875V109H163.5V95.375Z" fill="#FFF671"/>
<path d="M190.75 95.375H163.5V109H190.75V95.375Z" fill="#DB8323"/>
<path d="M204.375 95.375H190.75V109H204.375V95.375Z" fill="#FFC110"/>
<path d="M218 95.375H204.375V109H218V95.375Z" fill="#FFF671"/>
<path d="M231.625 95.375H218V109H231.625V95.375Z" fill="#DB8323"/>
<path d="M272.5 95.375H231.625V109H272.5V95.375Z" fill="#FFF671"/>
<path d="M149.875 109H136.25V122.625H149.875V109Z" fill="#FFC110"/>
<path d="M163.5 109H149.875V122.625H163.5V109Z" fill="#FFF671"/>
<path d="M190.75 109H163.5V122.625H190.75V109Z" fill="#DB8323"/>
<path d="M204.375 109H190.75V122.625H204.375V109Z" fill="#FFC110"/>
<path d="M218 109H204.375V122.625H218V109Z" fill="#FFF671"/>
<path d="M231.625 109H218V122.625H231.625V109Z" fill="#FFC110"/>
<path d="M272.5 109H231.625V122.625H272.5V109Z" fill="#FFF671"/>
<path d="M190.75 122.625H122.625V136.25H190.75V122.625Z" fill="#FFC110"/>
<path d="M231.625 122.625H190.75V136.25H231.625V122.625Z" fill="#FFF671"/>
<path d="M258.875 122.625H231.625V136.25H258.875V122.625Z" fill="#FFC110"/>
<path d="M286.125 122.625H258.875V136.25H286.125V122.625Z" fill="#FFF671"/>
<path d="M190.75 136.25H122.625V149.875H190.75V136.25Z" fill="#FFC110"/>
<path d="M286.125 136.25H190.75V149.875H286.125V136.25Z" fill="#FFF671"/>
<path d="M190.75 149.875H122.625V163.5H190.75V149.875Z" fill="#FFC110"/>
<path d="M299.75 149.875H190.75V163.5H299.75V149.875Z" fill="#FFF671"/>
<path d="M177.125 163.5H109V177.125H177.125V163.5Z" fill="#FFC110"/>
<path d="M299.75 163.5H177.125V177.125H299.75V163.5Z" fill="#FFF671"/>
<path d="M177.125 177.125H109V190.75H177.125V177.125Z" fill="#FFC110"/>
<path d="M313.375 177.125H177.125V190.75H313.375V177.125Z" fill="#FFF671"/>
<path d="M177.125 190.75H109V204.375H177.125V190.75Z" fill="#FFC110"/>
<path d="M313.375 190.75H177.125V204.375H313.375V190.75Z" fill="#FFF671"/>
<path d="M163.5 204.375H95.375V218H163.5V204.375Z" fill="#FFC110"/>
<path d="M327 204.375H163.5V218H327V204.375Z" fill="#FFF671"/>
<path d="M163.5 218H95.375V231.625H163.5V218Z" fill="#FFC110"/>
<path d="M327 218H163.5V231.625H327V218Z" fill="#FFF671"/>
<path d="M109 231.625H95.375V245.25H109V231.625Z" fill="#FFC110"/>
<path d="M122.625 231.625H109V245.25H122.625V231.625Z" fill="#FFF671"/>
<path d="M163.5 231.625H122.625V245.25H163.5V231.625Z" fill="#FFC110"/>
<path d="M340.625 231.625H163.5V245.25H340.625V231.625Z" fill="#FFF671"/>
<path d="M95.375 245.25H81.75V258.875H95.375V245.25Z" fill="#FFC110"/>
<path d="M109 245.25H95.375V258.875H109V245.25Z" fill="#FFF671"/>
<path d="M122.625 245.25H109V258.875H122.625V245.25Z" fill="#DB8323"/>
<path d="M149.875 245.25H122.625V258.875H149.875V245.25Z" fill="#FFC110"/>
<path d="M204.375 245.25H149.875V258.875H204.375V245.25Z" fill="#FFF671"/>
<path d="M218 245.25H204.375V258.875H218V245.25Z" fill="#DB8323"/>
<path d="M231.625 245.25H218V258.875H231.625V245.25Z" fill="#FFF671"/>
<path d="M272.5 245.25H231.625V258.875H272.5V245.25Z" fill="black"/>
<path d="M340.625 245.25H272.5V258.875H340.625V245.25Z" fill="#FFF671"/>
<path d="M95.375 258.875H81.75V272.5H95.375V258.875Z" fill="#FFC110"/>
<path d="M109 258.875H95.375V272.5H109V258.875Z" fill="#FFF671"/>
<path d="M122.625 258.875H109V272.5H122.625V258.875Z" fill="#DB8323"/>
<path d="M149.875 258.875H122.625V272.5H149.875V258.875Z" fill="#FFC110"/>
<path d="M177.125 258.875H149.875V272.5H177.125V258.875Z" fill="#FFF671"/>
<path d="M204.375 258.875H177.125V272.5H204.375V258.875Z" fill="#FFC110"/>
<path d="M299.75 258.875H204.375V272.5H299.75V258.875Z" fill="#FFF671"/>
<path d="M313.375 258.875H299.75V272.5H313.375V258.875Z" fill="#FFC110"/>
<path d="M354.25 258.875H313.375V272.5H354.25V258.875Z" fill="#FFF671"/>
<path d="M149.875 272.5H81.75V286.125H149.875V272.5Z" fill="#FFC110"/>
<path d="M354.25 272.5H149.875V286.125H354.25V272.5Z" fill="#FFF671"/>
<path d="M218 149.875H136.25V163.5H218V149.875Z" fill="#00A556"/>
<path d="M313.375 149.875H231.625V163.5H313.375V149.875Z" fill="#00A556"/>
<path d="M149.875 163.5H136.25V177.125H149.875V163.5Z" fill="#00A556"/>
<path d="M177.125 163.5H149.875V177.125H177.125V163.5Z" fill="white"/>
<path d="M204.375 163.5H177.125V177.125H204.375V163.5Z" fill="black"/>
<path d="M218 163.5H204.375V177.125H218V163.5Z" fill="#00A556"/>
<path d="M245.25 163.5H231.625V177.125H245.25V163.5Z" fill="#00A556"/>
<path d="M272.5 163.5H245.25V177.125H272.5V163.5Z" fill="white"/>
<path d="M299.75 163.5H272.5V177.125H299.75V163.5Z" fill="black"/>
<path d="M313.375 163.5H299.75V177.125H313.375V163.5Z" fill="#00A556"/>
<path d="M149.875 177.125H95.375V190.75H149.875V177.125Z" fill="#00A556"/>
<path d="M177.125 177.125H149.875V190.75H177.125V177.125Z" fill="white"/>
<path d="M204.375 177.125H177.125V190.75H204.375V177.125Z" fill="black"/>
<path d="M245.25 177.125H204.375V190.75H245.25V177.125Z" fill="#00A556"/>
<path d="M272.5 177.125H245.25V190.75H272.5V177.125Z" fill="white"/>
<path d="M299.75 177.125H272.5V190.75H299.75V177.125Z" fill="black"/>
<path d="M313.375 177.125H299.75V190.75H313.375V177.125Z" fill="#00A556"/>
<path d="M109 190.75H95.375V204.375H109V190.75Z" fill="#00A556"/>
<path d="M149.875 190.75H136.25V204.375H149.875V190.75Z" fill="#00A556"/>
<path d="M177.125 190.75H149.875V204.375H177.125V190.75Z" fill="white"/>
<path d="M204.375 190.75H177.125V204.375H204.375V190.75Z" fill="black"/>
<path d="M218 190.75H204.375V204.375H218V190.75Z" fill="#00A556"/>
<path d="M245.25 190.75H231.625V204.375H245.25V190.75Z" fill="#00A556"/>
<path d="M272.5 190.75H245.25V204.375H272.5V190.75Z" fill="white"/>
<path d="M299.75 190.75H272.5V204.375H299.75V190.75Z" fill="black"/>
<path d="M313.375 190.75H299.75V204.375H313.375V190.75Z" fill="#00A556"/>
<path d="M109 204.375H95.375V218H109V204.375Z" fill="#00A556"/>
<path d="M149.875 204.375H136.25V218H149.875V204.375Z" fill="#00A556"/>
<path d="M177.125 204.375H149.875V218H177.125V204.375Z" fill="white"/>
<path d="M204.375 204.375H177.125V218H204.375V204.375Z" fill="black"/>
<path d="M218 204.375H204.375V218H218V204.375Z" fill="#00A556"/>
<path d="M245.25 204.375H231.625V218H245.25V204.375Z" fill="#00A556"/>
<path d="M272.5 204.375H245.25V218H272.5V204.375Z" fill="white"/>
<path d="M299.75 204.375H272.5V218H299.75V204.375Z" fill="black"/>
<path d="M313.375 204.375H299.75V218H313.375V204.375Z" fill="#00A556"/>
<path d="M218 218H136.25V231.625H218V218Z" fill="#00A556"/>
<path d="M313.375 218H231.625V231.625H313.375V218Z" fill="#00A556"/>
<defs>
<linearGradient id="paint0_linear_2637_1670" x1="3.04542e-07" y1="435.5" x2="436" y2="-0.500002" gradientUnits="userSpaceOnUse">
<stop stop-color="#53185E"/>
<stop offset="1" stop-color="#C14F73"/>
</linearGradient>
</defs>
</svg>
