<svg width="436" height="436" viewBox="0 0 436 436" fill="none" xmlns="http://www.w3.org/2000/svg">
<rect width="436" height="436" fill="url(#paint0_linear_2637_859)"/>
<path d="M313.375 286.125H122.625V299.75H313.375V286.125Z" fill="#E9265C"/>
<path d="M313.375 299.75H122.625V313.375H313.375V299.75Z" fill="#E9265C"/>
<path d="M313.375 313.375H122.625V327H313.375V313.375Z" fill="#E9265C"/>
<path d="M313.375 327H122.625V340.625H313.375V327Z" fill="#E9265C"/>
<path d="M149.875 340.625H122.625V354.25H149.875V340.625Z" fill="#E9265C"/>
<path d="M313.375 340.625H163.5V354.25H313.375V340.625Z" fill="#E9265C"/>
<path d="M149.875 354.25H122.625V367.875H149.875V354.25Z" fill="#E9265C"/>
<path d="M313.375 354.25H163.5V367.875H313.375V354.25Z" fill="#E9265C"/>
<path d="M149.875 367.875H122.625V381.5H149.875V367.875Z" fill="#E9265C"/>
<path d="M313.375 367.875H163.5V381.5H313.375V367.875Z" fill="#E9265C"/>
<path d="M149.875 381.5H122.625V395.125H149.875V381.5Z" fill="#E9265C"/>
<path d="M313.375 381.5H163.5V395.125H313.375V381.5Z" fill="#E9265C"/>
<path d="M149.875 395.125H122.625V408.75H149.875V395.125Z" fill="#E9265C"/>
<path d="M313.375 395.125H163.5V408.75H313.375V395.125Z" fill="#E9265C"/>
<path d="M149.875 408.75H122.625V422.375H149.875V408.75Z" fill="#E9265C"/>
<path d="M313.375 408.75H163.5V422.375H313.375V408.75Z" fill="#E9265C"/>
<path d="M149.875 422.375H122.625V436H149.875V422.375Z" fill="#E9265C"/>
<path d="M313.375 422.375H163.5V436H313.375V422.375Z" fill="#E9265C"/>
<path d="M313.375 286.125H122.625V299.75H313.375V286.125Z" fill="#D62149"/>
<path d="M313.375 299.75H122.625V313.375H313.375V299.75Z" fill="#D62149"/>
<path d="M313.375 313.375H122.625V327H313.375V313.375Z" fill="#D62149"/>
<path d="M313.375 327H122.625V340.625H313.375V327Z" fill="#B9185C"/>
<path d="M149.875 340.625H122.625V354.25H149.875V340.625Z" fill="#B9185C"/>
<path d="M313.375 340.625H163.5V354.25H313.375V340.625Z" fill="#B9185C"/>
<path d="M149.875 354.25H122.625V367.875H149.875V354.25Z" fill="#B9185C"/>
<path d="M313.375 354.25H163.5V367.875H313.375V354.25Z" fill="#B9185C"/>
<path d="M149.875 367.875H122.625V381.5H149.875V367.875Z" fill="#B9185C"/>
<path d="M313.375 367.875H163.5V381.5H313.375V367.875Z" fill="#B9185C"/>
<path d="M149.875 381.5H122.625V395.125H149.875V381.5Z" fill="#B9185C"/>
<path d="M313.375 381.5H163.5V395.125H313.375V381.5Z" fill="#B9185C"/>
<path d="M149.875 395.125H122.625V408.75H149.875V395.125Z" fill="#B9185C"/>
<path d="M313.375 395.125H163.5V408.75H313.375V395.125Z" fill="#B9185C"/>
<path d="M149.875 408.75H122.625V422.375H149.875V408.75Z" fill="#834398"/>
<path d="M313.375 408.75H163.5V422.375H313.375V408.75Z" fill="#834398"/>
<path d="M149.875 422.375H122.625V436H149.875V422.375Z" fill="#834398"/>
<path d="M313.375 422.375H163.5V436H313.375V422.375Z" fill="#834398"/>
<path d="M204.375 81.5625H136.25V95.1562H204.375V81.5625Z" fill="#4BEA69"/>
<path d="M299.75 81.5625H245.25V95.1562H299.75V81.5625Z" fill="#4BEA69"/>
<path d="M218 95.1562H122.625V108.75H218V95.1562Z" fill="#4BEA69"/>
<path d="M313.375 95.1562H231.625V108.75H313.375V95.1562Z" fill="#4BEA69"/>
<path d="M163.5 108.75H109V122.344H163.5V108.75Z" fill="#4BEA69"/>
<path d="M190.75 108.75H163.5V122.344H190.75V108.75Z" fill="#068940"/>
<path d="M327 108.75H190.75V122.344H327V108.75Z" fill="#4BEA69"/>
<path d="M163.5 122.344H109V135.938H163.5V122.344Z" fill="#4BEA69"/>
<path d="M190.75 122.344H163.5V135.938H190.75V122.344Z" fill="#068940"/>
<path d="M327 122.344H190.75V135.938H327V122.344Z" fill="#4BEA69"/>
<path d="M286.125 135.938H109V149.531H286.125V135.938Z" fill="#4BEA69"/>
<path d="M313.375 135.938H286.125V149.531H313.375V135.938Z" fill="#068940"/>
<path d="M327 135.938H313.375V149.531H327V135.938Z" fill="#4BEA69"/>
<path d="M286.125 149.531H109V163.125H286.125V149.531Z" fill="#4BEA69"/>
<path d="M313.375 149.531H286.125V163.125H313.375V149.531Z" fill="#068940"/>
<path d="M327 149.531H313.375V163.125H327V149.531Z" fill="#4BEA69"/>
<path d="M327 163.125H109V176.719H327V163.125Z" fill="#4BEA69"/>
<path d="M327 176.719H109V190.312H327V176.719Z" fill="#4BEA69"/>
<path d="M136.25 190.312H109V203.906H136.25V190.312Z" fill="#068940"/>
<path d="M327 190.312H136.25V203.906H327V190.312Z" fill="#4BEA69"/>
<path d="M109 203.906H95.375V217.5H109V203.906Z" fill="#4BEA69"/>
<path d="M136.25 203.906H109V217.5H136.25V203.906Z" fill="#068940"/>
<path d="M340.625 203.906H136.25V217.5H340.625V203.906Z" fill="#4BEA69"/>
<path d="M340.625 217.5H95.375V231.094H340.625V217.5Z" fill="#4BEA69"/>
<path d="M340.625 231.094H95.375V244.688H340.625V231.094Z" fill="#4BEA69"/>
<path d="M340.625 244.688H95.375V258.281H340.625V244.688Z" fill="#70E890"/>
<path d="M122.625 258.281H95.375V271.875H122.625V258.281Z" fill="#70E890"/>
<path d="M313.375 258.281H122.625V271.875H313.375V258.281Z" fill="#0B5027"/>
<path d="M340.625 258.281H313.375V271.875H340.625V258.281Z" fill="#70E890"/>
<path d="M327 271.875H109V285.469H327V271.875Z" fill="#70E890"/>
<path d="M218 149.875H136.25V163.5H218V149.875Z" fill="#B9185C"/>
<path d="M313.375 149.875H231.625V163.5H313.375V149.875Z" fill="#B9185C"/>
<path d="M149.875 163.5H136.25V177.125H149.875V163.5Z" fill="#B9185C"/>
<path d="M177.125 163.5H149.875V177.125H177.125V163.5Z" fill="white"/>
<path d="M204.375 163.5H177.125V177.125H204.375V163.5Z" fill="black"/>
<path d="M218 163.5H204.375V177.125H218V163.5Z" fill="#B9185C"/>
<path d="M245.25 163.5H231.625V177.125H245.25V163.5Z" fill="#B9185C"/>
<path d="M272.5 163.5H245.25V177.125H272.5V163.5Z" fill="white"/>
<path d="M299.75 163.5H272.5V177.125H299.75V163.5Z" fill="black"/>
<path d="M313.375 163.5H299.75V177.125H313.375V163.5Z" fill="#B9185C"/>
<path d="M149.875 177.125H95.375V190.75H149.875V177.125Z" fill="#B9185C"/>
<path d="M177.125 177.125H149.875V190.75H177.125V177.125Z" fill="white"/>
<path d="M204.375 177.125H177.125V190.75H204.375V177.125Z" fill="black"/>
<path d="M245.25 177.125H204.375V190.75H245.25V177.125Z" fill="#B9185C"/>
<path d="M272.5 177.125H245.25V190.75H272.5V177.125Z" fill="white"/>
<path d="M299.75 177.125H272.5V190.75H299.75V177.125Z" fill="black"/>
<path d="M313.375 177.125H299.75V190.75H313.375V177.125Z" fill="#B9185C"/>
<path d="M109 190.75H95.375V204.375H109V190.75Z" fill="#B9185C"/>
<path d="M149.875 190.75H136.25V204.375H149.875V190.75Z" fill="#B9185C"/>
<path d="M177.125 190.75H149.875V204.375H177.125V190.75Z" fill="white"/>
<path d="M204.375 190.75H177.125V204.375H204.375V190.75Z" fill="black"/>
<path d="M218 190.75H204.375V204.375H218V190.75Z" fill="#B9185C"/>
<path d="M245.25 190.75H231.625V204.375H245.25V190.75Z" fill="#B9185C"/>
<path d="M272.5 190.75H245.25V204.375H272.5V190.75Z" fill="white"/>
<path d="M299.75 190.75H272.5V204.375H299.75V190.75Z" fill="black"/>
<path d="M313.375 190.75H299.75V204.375H313.375V190.75Z" fill="#B9185C"/>
<path d="M109 204.375H95.375V218H109V204.375Z" fill="#B9185C"/>
<path d="M149.875 204.375H136.25V218H149.875V204.375Z" fill="#B9185C"/>
<path d="M177.125 204.375H149.875V218H177.125V204.375Z" fill="white"/>
<path d="M204.375 204.375H177.125V218H204.375V204.375Z" fill="black"/>
<path d="M218 204.375H204.375V218H218V204.375Z" fill="#B9185C"/>
<path d="M245.25 204.375H231.625V218H245.25V204.375Z" fill="#B9185C"/>
<path d="M272.5 204.375H245.25V218H272.5V204.375Z" fill="white"/>
<path d="M299.75 204.375H272.5V218H299.75V204.375Z" fill="black"/>
<path d="M313.375 204.375H299.75V218H313.375V204.375Z" fill="#B9185C"/>
<path d="M218 218H136.25V231.625H218V218Z" fill="#B9185C"/>
<path d="M313.375 218H231.625V231.625H313.375V218Z" fill="#B9185C"/>
<defs>
<linearGradient id="paint0_linear_2637_859" x1="3.04542e-07" y1="435.5" x2="436" y2="-0.500002" gradientUnits="userSpaceOnUse">
<stop stop-color="#53185E"/>
<stop offset="1" stop-color="#C14F73"/>
</linearGradient>
</defs>
</svg>
