<svg width="436" height="437" viewBox="0 0 436 437" fill="none" xmlns="http://www.w3.org/2000/svg">
<rect width="436" height="436" transform="translate(0 1)" fill="url(#paint0_linear_2613_33384)"/>
<path d="M313.375 286.125H122.625V299.75H313.375V286.125Z" fill="#D22209"/>
<path d="M313.375 299.75H122.625V313.375H313.375V299.75Z" fill="#D22209"/>
<path d="M313.375 313.375H122.625V327H313.375V313.375Z" fill="#D22209"/>
<path d="M313.375 327H122.625V340.625H313.375V327Z" fill="#D22209"/>
<path d="M149.875 340.625H122.625V354.25H149.875V340.625Z" fill="#D22209"/>
<path d="M313.375 340.625H163.5V354.25H313.375V340.625Z" fill="#D22209"/>
<path d="M149.875 354.25H122.625V367.875H149.875V354.25Z" fill="#D22209"/>
<path d="M313.375 354.25H163.5V367.875H313.375V354.25Z" fill="#D22209"/>
<path d="M149.875 367.875H122.625V381.5H149.875V367.875Z" fill="#D22209"/>
<path d="M313.375 367.875H163.5V381.5H313.375V367.875Z" fill="#D22209"/>
<path d="M149.875 381.5H122.625V395.125H149.875V381.5Z" fill="#D22209"/>
<path d="M313.375 381.5H163.5V395.125H313.375V381.5Z" fill="#D22209"/>
<path d="M149.875 395.125H122.625V408.75H149.875V395.125Z" fill="#D22209"/>
<path d="M313.375 395.125H163.5V408.75H313.375V395.125Z" fill="#D22209"/>
<path d="M149.875 408.75H122.625V422.375H149.875V408.75Z" fill="#D22209"/>
<path d="M313.375 408.75H163.5V422.375H313.375V408.75Z" fill="#D22209"/>
<path d="M149.875 422.375H122.625V436H149.875V422.375Z" fill="#D22209"/>
<path d="M313.375 422.375H163.5V436H313.375V422.375Z" fill="#D22209"/>
<path d="M163.5 282.531H149.875V295.938H163.5V282.531Z" fill="#FEB9D5"/>
<path d="M204.375 282.531H190.75V295.938H204.375V282.531Z" fill="#FEB9D5"/>
<path d="M245.25 282.531H231.625V295.938H245.25V282.531Z" fill="#FEB9D5"/>
<path d="M286.125 282.531H272.5V295.938H286.125V282.531Z" fill="#FEB9D5"/>
<path d="M136.25 295.938H122.625V309.344H136.25V295.938Z" fill="#FEB9D5"/>
<path d="M177.125 295.938H163.5V309.344H177.125V295.938Z" fill="#FEB9D5"/>
<path d="M218 295.938H204.375V309.344H218V295.938Z" fill="#FEB9D5"/>
<path d="M258.875 295.938H245.25V309.344H258.875V295.938Z" fill="#FEB9D5"/>
<path d="M299.75 295.938H286.125V309.344H299.75V295.938Z" fill="#FEB9D5"/>
<path d="M149.875 309.344H136.25V322.75H149.875V309.344Z" fill="#FEB9D5"/>
<path d="M190.75 309.344H177.125V322.75H190.75V309.344Z" fill="#FEB9D5"/>
<path d="M231.625 309.344H218V322.75H231.625V309.344Z" fill="#FEB9D5"/>
<path d="M272.5 309.344H258.875V322.75H272.5V309.344Z" fill="#FEB9D5"/>
<path d="M313.375 309.344H299.75V322.75H313.375V309.344Z" fill="#FEB9D5"/>
<path d="M163.5 322.75H149.875V336.156H163.5V322.75Z" fill="#FEB9D5"/>
<path d="M204.375 322.75H190.75V336.156H204.375V322.75Z" fill="#FEB9D5"/>
<path d="M245.25 322.75H231.625V336.156H245.25V322.75Z" fill="#FEB9D5"/>
<path d="M286.125 322.75H272.5V336.156H286.125V322.75Z" fill="#FEB9D5"/>
<path d="M136.25 336.156H122.625V349.562H136.25V336.156Z" fill="#FEB9D5"/>
<path d="M177.125 336.156H163.5V349.562H177.125V336.156Z" fill="#FEB9D5"/>
<path d="M218 336.156H204.375V349.562H218V336.156Z" fill="#FEB9D5"/>
<path d="M258.875 336.156H245.25V349.562H258.875V336.156Z" fill="#FEB9D5"/>
<path d="M299.75 336.156H286.125V349.562H299.75V336.156Z" fill="#FEB9D5"/>
<path d="M149.875 349.562H136.25V362.969H149.875V349.562Z" fill="#FEB9D5"/>
<path d="M190.75 349.562H177.125V362.969H190.75V349.562Z" fill="#FEB9D5"/>
<path d="M231.625 349.562H218V362.969H231.625V349.562Z" fill="#FEB9D5"/>
<path d="M272.5 349.562H258.875V362.969H272.5V349.562Z" fill="#FEB9D5"/>
<path d="M313.375 349.562H299.75V362.969H313.375V349.562Z" fill="#FEB9D5"/>
<path d="M204.375 362.969H190.75V376.375H204.375V362.969Z" fill="#FEB9D5"/>
<path d="M245.25 362.969H231.625V376.375H245.25V362.969Z" fill="#FEB9D5"/>
<path d="M286.125 362.969H272.5V376.375H286.125V362.969Z" fill="#FEB9D5"/>
<path d="M136.25 376.375H122.625V389.781H136.25V376.375Z" fill="#FEB9D5"/>
<path d="M177.125 376.375H163.5V389.781H177.125V376.375Z" fill="#FEB9D5"/>
<path d="M218 376.375H204.375V389.781H218V376.375Z" fill="#FEB9D5"/>
<path d="M258.875 376.375H245.25V389.781H258.875V376.375Z" fill="#FEB9D5"/>
<path d="M299.75 376.375H286.125V389.781H299.75V376.375Z" fill="#FEB9D5"/>
<path d="M149.875 389.781H136.25V403.188H149.875V389.781Z" fill="#FEB9D5"/>
<path d="M190.75 389.781H177.125V403.188H190.75V389.781Z" fill="#FEB9D5"/>
<path d="M231.625 389.781H218V403.188H231.625V389.781Z" fill="#FEB9D5"/>
<path d="M272.5 389.781H258.875V403.188H272.5V389.781Z" fill="#FEB9D5"/>
<path d="M313.375 389.781H299.75V403.188H313.375V389.781Z" fill="#FEB9D5"/>
<path d="M204.375 403.188H190.75V416.594H204.375V403.188Z" fill="#FEB9D5"/>
<path d="M245.25 403.188H231.625V416.594H245.25V403.188Z" fill="#FEB9D5"/>
<path d="M286.125 403.188H272.5V416.594H286.125V403.188Z" fill="#FEB9D5"/>
<path d="M136.25 416.594H122.625V430H136.25V416.594Z" fill="#FEB9D5"/>
<path d="M177.125 416.594H163.5V430H177.125V416.594Z" fill="#FEB9D5"/>
<path d="M218 416.594H204.375V430H218V416.594Z" fill="#FEB9D5"/>
<path d="M258.875 416.594H245.25V430H258.875V416.594Z" fill="#FEB9D5"/>
<path d="M299.75 416.594H286.125V430H299.75V416.594Z" fill="#FEB9D5"/>
<path d="M231.625 41.375H149.875V55H231.625V41.375Z" fill="#EFF2FA"/>
<path d="M272.5 41.375H258.875V55H272.5V41.375Z" fill="#EFF2FA"/>
<path d="M163.5 55H122.625V68.625H163.5V55Z" fill="#EFF2FA"/>
<path d="M231.625 55H218V68.625H231.625V55Z" fill="#EFF2FA"/>
<path d="M299.75 55H272.5V68.625H299.75V55Z" fill="#EFF2FA"/>
<path d="M327 55H313.375V68.625H327V55Z" fill="#EFF2FA"/>
<path d="M122.625 68.625H109V82.25H122.625V68.625Z" fill="#EFF2FA"/>
<path d="M190.75 68.625H149.875V82.25H190.75V68.625Z" fill="#EFF2FA"/>
<path d="M272.5 68.625H231.625V82.25H272.5V68.625Z" fill="#EFF2FA"/>
<path d="M149.875 82.25H122.625V95.875H149.875V82.25Z" fill="#EFF2FA"/>
<path d="M177.125 82.25H163.5V95.875H177.125V82.25Z" fill="#EFF2FA"/>
<path d="M367.875 109.5H68.125V123.125H367.875V109.5Z" fill="white"/>
<path d="M81.75 123.125H68.125V136.75H81.75V123.125Z" fill="white"/>
<path d="M95.375 123.125H81.75V136.75H95.375V123.125Z" fill="#ADC8CC"/>
<path d="M109 123.125H95.375V136.75H109V123.125Z" fill="#E5E5DE"/>
<path d="M340.625 123.125H109V136.75H340.625V123.125Z" fill="white"/>
<path d="M354.25 123.125H340.625V136.75H354.25V123.125Z" fill="#E5E5DE"/>
<path d="M367.875 123.125H354.25V136.75H367.875V123.125Z" fill="white"/>
<path d="M54.5 136.75H40.875V150.375H54.5V136.75Z" fill="white"/>
<path d="M68.125 136.75H54.5V150.375H68.125V136.75Z" fill="#E5E5DE"/>
<path d="M81.75 136.75H68.125V150.375H81.75V136.75Z" fill="white"/>
<path d="M95.375 136.75H81.75V150.375H95.375V136.75Z" fill="#ADC8CC"/>
<path d="M109 136.75H95.375V150.375H109V136.75Z" fill="#E5E5DE"/>
<path d="M340.625 136.75H109V150.375H340.625V136.75Z" fill="white"/>
<path d="M354.25 136.75H340.625V150.375H354.25V136.75Z" fill="#E5E5DE"/>
<path d="M367.875 136.75H354.25V150.375H367.875V136.75Z" fill="white"/>
<path d="M54.5 150.375H27.25V164H54.5V150.375Z" fill="white"/>
<path d="M81.75 150.375H68.125V164H81.75V150.375Z" fill="white"/>
<path d="M95.375 150.375H81.75V164H95.375V150.375Z" fill="#ADC8CC"/>
<path d="M122.625 150.375H95.375V164H122.625V150.375Z" fill="#E5E5DE"/>
<path d="M340.625 150.375H122.625V164H340.625V150.375Z" fill="white"/>
<path d="M354.25 150.375H340.625V164H354.25V150.375Z" fill="#E5E5DE"/>
<path d="M367.875 150.375H354.25V164H367.875V150.375Z" fill="white"/>
<path d="M40.875 164H27.25V177.625H40.875V164Z" fill="white"/>
<path d="M81.75 164H68.125V177.625H81.75V164Z" fill="white"/>
<path d="M95.375 164H81.75V177.625H95.375V164Z" fill="#ADC8CC"/>
<path d="M122.625 164H95.375V177.625H122.625V164Z" fill="#E5E5DE"/>
<path d="M340.625 164H122.625V177.625H340.625V164Z" fill="white"/>
<path d="M354.25 164H340.625V177.625H354.25V164Z" fill="#E5E5DE"/>
<path d="M367.875 164H354.25V177.625H367.875V164Z" fill="white"/>
<path d="M40.875 177.625H27.25V191.25H40.875V177.625Z" fill="white"/>
<path d="M81.75 177.625H68.125V191.25H81.75V177.625Z" fill="white"/>
<path d="M95.375 177.625H81.75V191.25H95.375V177.625Z" fill="#ADC8CC"/>
<path d="M122.625 177.625H95.375V191.25H122.625V177.625Z" fill="#E5E5DE"/>
<path d="M340.625 177.625H122.625V191.25H340.625V177.625Z" fill="white"/>
<path d="M354.25 177.625H340.625V191.25H354.25V177.625Z" fill="#E5E5DE"/>
<path d="M367.875 177.625H354.25V191.25H367.875V177.625Z" fill="white"/>
<path d="M54.5 191.25H27.25V204.875H54.5V191.25Z" fill="white"/>
<path d="M81.75 191.25H68.125V204.875H81.75V191.25Z" fill="white"/>
<path d="M95.375 191.25H81.75V204.875H95.375V191.25Z" fill="#ADC8CC"/>
<path d="M122.625 191.25H95.375V204.875H122.625V191.25Z" fill="#E5E5DE"/>
<path d="M340.625 191.25H122.625V204.875H340.625V191.25Z" fill="white"/>
<path d="M354.25 191.25H340.625V204.875H354.25V191.25Z" fill="#E5E5DE"/>
<path d="M367.875 191.25H354.25V204.875H367.875V191.25Z" fill="white"/>
<path d="M54.5 204.875H40.875V218.5H54.5V204.875Z" fill="white"/>
<path d="M68.125 204.875H54.5V218.5H68.125V204.875Z" fill="#E5E5DE"/>
<path d="M81.75 204.875H68.125V218.5H81.75V204.875Z" fill="white"/>
<path d="M95.375 204.875H81.75V218.5H95.375V204.875Z" fill="#ADC8CC"/>
<path d="M122.625 204.875H95.375V218.5H122.625V204.875Z" fill="#E5E5DE"/>
<path d="M367.875 204.875H122.625V218.5H367.875V204.875Z" fill="white"/>
<path d="M68.125 218.5H54.5V232.125H68.125V218.5Z" fill="white"/>
<path d="M81.75 218.5H68.125V232.125H81.75V218.5Z" fill="#E5E5DE"/>
<path d="M95.375 218.5H81.75V232.125H95.375V218.5Z" fill="white"/>
<path d="M109 218.5H95.375V232.125H109V218.5Z" fill="#ADC8CC"/>
<path d="M122.625 218.5H109V232.125H122.625V218.5Z" fill="#E5E5DE"/>
<path d="M354.25 218.5H122.625V232.125H354.25V218.5Z" fill="white"/>
<path d="M95.375 232.125H81.75V245.75H95.375V232.125Z" fill="white"/>
<path d="M109 232.125H95.375V245.75H109V232.125Z" fill="#ADC8CC"/>
<path d="M122.625 232.125H109V245.75H122.625V232.125Z" fill="#E5E5DE"/>
<path d="M354.25 232.125H122.625V245.75H354.25V232.125Z" fill="white"/>
<path d="M109 245.75H95.375V259.375H109V245.75Z" fill="white"/>
<path d="M122.625 245.75H109V259.375H122.625V245.75Z" fill="#ADC8CC"/>
<path d="M136.25 245.75H122.625V259.375H136.25V245.75Z" fill="#E5E5DE"/>
<path d="M190.75 245.75H136.25V259.375H190.75V245.75Z" fill="white"/>
<path d="M245.25 245.75H190.75V259.375H245.25V245.75Z" fill="#E8705B"/>
<path d="M299.75 245.75H245.25V259.375H299.75V245.75Z" fill="white"/>
<path d="M313.375 245.75H299.75V259.375H313.375V245.75Z" fill="#E5E5DE"/>
<path d="M340.625 245.75H313.375V259.375H340.625V245.75Z" fill="white"/>
<path d="M122.625 259.375H109V273H122.625V259.375Z" fill="white"/>
<path d="M136.25 259.375H122.625V273H136.25V259.375Z" fill="#ADC8CC"/>
<path d="M149.875 259.375H136.25V273H149.875V259.375Z" fill="#E5E5DE"/>
<path d="M204.375 259.375H149.875V273H204.375V259.375Z" fill="white"/>
<path d="M231.625 259.375H204.375V273H231.625V259.375Z" fill="#E8705B"/>
<path d="M286.125 259.375H231.625V273H286.125V259.375Z" fill="white"/>
<path d="M299.75 259.375H286.125V273H299.75V259.375Z" fill="#E5E5DE"/>
<path d="M327 259.375H299.75V273H327V259.375Z" fill="white"/>
<path d="M136.25 273H122.625V286.625H136.25V273Z" fill="white"/>
<path d="M149.875 273H136.25V286.625H149.875V273Z" fill="#ADC8CC"/>
<path d="M177.125 273H149.875V286.625H177.125V273Z" fill="#E5E5DE"/>
<path d="M258.875 273H177.125V286.625H258.875V273Z" fill="white"/>
<path d="M286.125 273H258.875V286.625H286.125V273Z" fill="#E5E5DE"/>
<path d="M313.375 273H286.125V286.625H313.375V273Z" fill="white"/>
<path d="M218 148.469H136.25V161.875H218V148.469Z" fill="#F3322C"/>
<path d="M313.375 148.469H231.625V161.875H313.375V148.469Z" fill="#F3322C"/>
<path d="M149.875 161.875H136.25V175.281H149.875V161.875Z" fill="#F3322C"/>
<path d="M177.125 161.875H149.875V175.281H177.125V161.875Z" fill="white"/>
<path d="M204.375 161.875H177.125V175.281H204.375V161.875Z" fill="black"/>
<path d="M218 161.875H204.375V175.281H218V161.875Z" fill="#F3322C"/>
<path d="M245.25 161.875H231.625V175.281H245.25V161.875Z" fill="#F3322C"/>
<path d="M272.5 161.875H245.25V175.281H272.5V161.875Z" fill="white"/>
<path d="M299.75 161.875H272.5V175.281H299.75V161.875Z" fill="black"/>
<path d="M313.375 161.875H299.75V175.281H313.375V161.875Z" fill="#F3322C"/>
<path d="M149.875 175.281H95.375V188.688H149.875V175.281Z" fill="#F3322C"/>
<path d="M177.125 175.281H149.875V188.688H177.125V175.281Z" fill="white"/>
<path d="M204.375 175.281H177.125V188.688H204.375V175.281Z" fill="black"/>
<path d="M245.25 175.281H204.375V188.688H245.25V175.281Z" fill="#F3322C"/>
<path d="M272.5 175.281H245.25V188.688H272.5V175.281Z" fill="white"/>
<path d="M299.75 175.281H272.5V188.688H299.75V175.281Z" fill="black"/>
<path d="M313.375 175.281H299.75V188.688H313.375V175.281Z" fill="#F3322C"/>
<path d="M109 188.688H95.375V202.094H109V188.688Z" fill="#F3322C"/>
<path d="M149.875 188.688H136.25V202.094H149.875V188.688Z" fill="#F3322C"/>
<path d="M177.125 188.688H149.875V202.094H177.125V188.688Z" fill="white"/>
<path d="M204.375 188.688H177.125V202.094H204.375V188.688Z" fill="black"/>
<path d="M218 188.688H204.375V202.094H218V188.688Z" fill="#F3322C"/>
<path d="M245.25 188.688H231.625V202.094H245.25V188.688Z" fill="#F3322C"/>
<path d="M272.5 188.688H245.25V202.094H272.5V188.688Z" fill="white"/>
<path d="M299.75 188.688H272.5V202.094H299.75V188.688Z" fill="black"/>
<path d="M313.375 188.688H299.75V202.094H313.375V188.688Z" fill="#F3322C"/>
<path d="M109 202.094H95.375V215.5H109V202.094Z" fill="#F3322C"/>
<path d="M149.875 202.094H136.25V215.5H149.875V202.094Z" fill="#F3322C"/>
<path d="M177.125 202.094H149.875V215.5H177.125V202.094Z" fill="white"/>
<path d="M204.375 202.094H177.125V215.5H204.375V202.094Z" fill="black"/>
<path d="M218 202.094H204.375V215.5H218V202.094Z" fill="#F3322C"/>
<path d="M245.25 202.094H231.625V215.5H245.25V202.094Z" fill="#F3322C"/>
<path d="M272.5 202.094H245.25V215.5H272.5V202.094Z" fill="white"/>
<path d="M299.75 202.094H272.5V215.5H299.75V202.094Z" fill="black"/>
<path d="M313.375 202.094H299.75V215.5H313.375V202.094Z" fill="#F3322C"/>
<path d="M218 215.5H136.25V228.906H218V215.5Z" fill="#F3322C"/>
<path d="M313.375 215.5H231.625V228.906H313.375V215.5Z" fill="#F3322C"/>
<defs>
<linearGradient id="paint0_linear_2613_33384" x1="3.04542e-07" y1="435.5" x2="436" y2="-0.500002" gradientUnits="userSpaceOnUse">
<stop stop-color="#53185E"/>
<stop offset="1" stop-color="#C14F73"/>
</linearGradient>
</defs>
</svg>
