<svg width="30" height="30" viewBox="0 0 30 30" fill="none" xmlns="http://www.w3.org/2000/svg">
<g clip-path="url(#clip0_2613_38071)">
<path d="M15.0001 0.600098C7.0471 0.600098 0.600098 7.0471 0.600098 15.0001C0.600098 22.9531 7.0471 29.4001 15.0001 29.4001C22.9531 29.4001 29.4001 22.9531 29.4001 15.0001C29.4001 7.0471 22.9531 0.600098 15.0001 0.600098ZM20.8576 12.3961C20.8636 12.5191 20.8651 12.6421 20.8651 12.7621C20.8651 16.5121 18.0136 20.8336 12.7966 20.8336C11.255 20.8362 9.74555 20.3934 8.4496 19.5586C8.6701 19.5856 8.8966 19.5961 9.1261 19.5961C10.4551 19.5961 11.6776 19.1446 12.6481 18.3826C12.0567 18.371 11.4836 18.1751 11.0088 17.8224C10.5339 17.4696 10.181 16.9775 9.9991 16.4146C10.4238 16.4954 10.8614 16.4784 11.2786 16.3651C10.6367 16.2353 10.0594 15.8875 9.64466 15.3806C9.22993 14.8737 9.00326 14.239 9.0031 13.5841V13.5496C9.3856 13.7611 9.8236 13.8901 10.2886 13.9051C9.6868 13.5045 9.26078 12.8891 9.09767 12.1848C8.93455 11.4805 9.04668 10.7405 9.4111 10.1161C10.1235 10.9921 11.012 11.7087 12.019 12.2196C13.0259 12.7304 14.1289 13.0241 15.2566 13.0816C15.1132 12.4731 15.1749 11.8342 15.4321 11.2644C15.6893 10.6945 16.1275 10.2256 16.6787 9.93049C17.2299 9.6354 17.8631 9.53068 18.4799 9.63261C19.0968 9.73453 19.6627 10.0374 20.0896 10.4941C20.7244 10.3685 21.3331 10.1357 21.8896 9.8056C21.678 10.4628 21.2351 11.0209 20.6431 11.3761C21.2054 11.3084 21.7544 11.1572 22.2721 10.9276C21.8918 11.4974 21.4128 11.9948 20.8576 12.3961V12.3961Z" fill="white"/>
</g>
<defs>
<clipPath id="clip0_2613_38071">
<rect width="30" height="30" fill="white"/>
</clipPath>
</defs>
</svg>
